<?xml version="1.0" encoding="UTF-8" standalone="no"?>
<!-- Created with Inkscape (http://www.inkscape.org/) -->

<svg
   width="331.15271"
   height="113.66944"
   viewBox="0 0 87.617488 30.07504"
   version="1.1"
   id="svg1"
   inkscape:export-filename="tela_inserir_o_pin.png"
   inkscape:export-xdpi="96"
   inkscape:export-ydpi="96"
   sodipodi:docname="telas.svg"
   xml:space="preserve"
   inkscape:version="1.3 (0e150ed6c4, 2023-07-21)"
   xmlns:inkscape="http://www.inkscape.org/namespaces/inkscape"
   xmlns:sodipodi="http://sodipodi.sourceforge.net/DTD/sodipodi-0.dtd"
   xmlns="http://www.w3.org/2000/svg"
   xmlns:svg="http://www.w3.org/2000/svg"><sodipodi:namedview
     id="namedview1"
     pagecolor="#ffffff"
     bordercolor="#000000"
     borderopacity="0.25"
     inkscape:showpageshadow="2"
     inkscape:pageopacity="0.0"
     inkscape:pagecheckerboard="0"
     inkscape:deskcolor="#d1d1d1"
     inkscape:document-units="mm"
     inkscape:zoom="0.49822536"
     inkscape:cx="2772.8416"
     inkscape:cy="3469.3136"
     inkscape:window-width="1366"
     inkscape:window-height="705"
     inkscape:window-x="-8"
     inkscape:window-y="-8"
     inkscape:window-maximized="1"
     inkscape:current-layer="layer1" /><defs
     id="defs1" /><g
     inkscape:label="Camada 1"
     inkscape:groupmode="layer"
     id="layer1"
     transform="translate(-285.07623,-333.07367)"><g
       id="g99-6-2-1"
       transform="matrix(0.89233563,0,0,0.89233563,58.35462,305.23909)"><path
         id="path98-7-5-9"
         transform="matrix(0.5055699,0.14391174,-0.14672268,0.51544489,200.87193,52.505321)"
         d="m 264.26333,-49.869085 -141.68325,39.684914 c -1.26129,0.3532832 -2.61514,0.01465 -3.55444,-0.898195 L 96.036284,-33.42414 c -0.939303,-0.912843 -1.320265,-2.257455 -0.99937,-3.527337 l 7.853866,-31.080259 c 0.3209,-1.26988 1.29379,-2.275858 2.55508,-2.629142 L 247.1291,-110.34579 c 1.2613,-0.35329 2.61514,-0.0147 3.55445,0.89819 l 22.98936,22.341777 c 0.9393,0.912842 1.32025,2.257456 0.99936,3.527337 l -7.85386,31.080258 c -0.3209,1.26988 -1.29379,2.275859 -2.55508,2.629143 z"
         style="fill:#eb0b30;fill-opacity:1;stroke:none;stroke-width:0.7;stroke-linecap:round;stroke-dasharray:none;stroke-opacity:1"
         sodipodi:nodetypes="sssssssssssss" /></g></g></svg>
