<?xml version="1.0" encoding="UTF-8" standalone="no"?>
<!-- Created with Inkscape (http://www.inkscape.org/) -->

<svg
   width="582.62305"
   height="193.87695"
   viewBox="0 0 154.15235 51.296611"
   version="1.1"
   id="svg1"
   inkscape:export-filename="tela_inserir_o_pin.png"
   inkscape:export-xdpi="96"
   inkscape:export-ydpi="96"
   sodipodi:docname="telas.svg"
   xml:space="preserve"
   inkscape:version="1.3 (0e150ed6c4, 2023-07-21)"
   xmlns:inkscape="http://www.inkscape.org/namespaces/inkscape"
   xmlns:sodipodi="http://sodipodi.sourceforge.net/DTD/sodipodi-0.dtd"
   xmlns="http://www.w3.org/2000/svg"
   xmlns:svg="http://www.w3.org/2000/svg"><sodipodi:namedview
     id="namedview1"
     pagecolor="#ffffff"
     bordercolor="#000000"
     borderopacity="0.25"
     inkscape:showpageshadow="2"
     inkscape:pageopacity="0.0"
     inkscape:pagecheckerboard="0"
     inkscape:deskcolor="#d1d1d1"
     inkscape:document-units="mm"
     inkscape:zoom="0.24911268"
     inkscape:cx="2613.2753"
     inkscape:cy="1989.0598"
     inkscape:window-width="1366"
     inkscape:window-height="705"
     inkscape:window-x="-8"
     inkscape:window-y="-8"
     inkscape:window-maximized="1"
     inkscape:current-layer="layer1" /><defs
     id="defs1"><inkscape:path-effect
       effect="fillet_chamfer"
       id="path-effect94-9-8-6"
       is_visible="true"
       lpeversion="1"
       nodesatellites_param="F,0,0,1,0,1.5875,0,1 @ F,0,0,1,0,1.5875,0,1 @ F,0,0,1,0,1.5875,0,1 @ F,0,0,1,0,1.5875,0,1 @ F,0,0,1,0,1.5875,0,1 @ F,0,0,1,0,1.5875,0,1 @ F,0,0,1,0,1.5875,0,1 @ F,0,0,1,0,1.5875,0,1 @ F,0,0,1,0,1.5875,0,1 @ F,0,0,1,0,1.5875,0,1 @ F,0,0,1,0,1.5875,0,1 @ F,0,0,1,0,1.5875,0,1"
       radius="5"
       unit="px"
       method="auto"
       mode="F"
       chamfer_steps="1"
       flexible="false"
       use_knot_distance="true"
       apply_no_radius="true"
       apply_with_radius="true"
       only_selected="false"
       hide_knots="false" /><filter
       inkscape:collect="always"
       style="color-interpolation-filters:sRGB"
       id="filter96-6-8-3"
       x="-0.060914979"
       y="-0.060499428"
       width="1.12183"
       height="1.1209989"><feGaussianBlur
         inkscape:collect="always"
         stdDeviation="1.7517828"
         id="feGaussianBlur96-9-3-3" /></filter><inkscape:path-effect
       effect="fillet_chamfer"
       id="path-effect96-2-0-8"
       is_visible="true"
       lpeversion="1"
       nodesatellites_param="F,0,0,1,0,2.1166667,0,1 @ F,0,0,1,0,2.1166667,0,1 @ F,0,0,1,0,2.1166667,0,1 @ F,0,0,1,0,2.1166667,0,1 @ F,0,0,1,0,2.1166667,0,1 @ F,0,0,1,0,2.1166667,0,1"
       radius="8"
       unit="px"
       method="auto"
       mode="F"
       chamfer_steps="1"
       flexible="false"
       use_knot_distance="true"
       apply_no_radius="true"
       apply_with_radius="true"
       only_selected="false"
       hide_knots="false" /><inkscape:path-effect
       effect="fillet_chamfer"
       id="path-effect93-7-2-0"
       is_visible="true"
       lpeversion="1"
       nodesatellites_param="F,0,0,1,0,2.1166667,0,1 @ F,0,0,1,0,2.1166667,0,1 @ F,0,0,1,0,2.1166667,0,1 @ F,0,0,1,0,2.1166667,0,1 @ F,0,0,1,0,2.1166667,0,1 @ F,0,0,1,0,2.1166667,0,1"
       radius="8"
       unit="px"
       method="auto"
       mode="F"
       chamfer_steps="1"
       flexible="false"
       use_knot_distance="true"
       apply_no_radius="true"
       apply_with_radius="true"
       only_selected="false"
       hide_knots="false" /><inkscape:path-effect
       effect="fillet_chamfer"
       id="path-effect92-7-6-0"
       is_visible="true"
       lpeversion="1"
       nodesatellites_param="F,0,0,1,0,2.1166667,0,1 @ F,0,0,1,0,2.1166667,0,1 @ F,0,0,1,0,2.1166667,0,1 @ F,0,0,1,0,2.1166667,0,1 @ F,0,0,1,0,2.1166667,0,1 @ F,0,0,1,0,2.1166667,0,1"
       radius="8"
       unit="px"
       method="auto"
       mode="F"
       chamfer_steps="1"
       flexible="false"
       use_knot_distance="true"
       apply_no_radius="true"
       apply_with_radius="true"
       only_selected="false"
       hide_knots="false" /></defs><g
     inkscape:label="Camada 1"
     inkscape:groupmode="layer"
     id="layer1"
     transform="translate(-831.58544,-1413.4042)"><g
       id="g1"
       inkscape:export-filename="..\Refs\navbar-menu.svg"
       inkscape:export-xdpi="96"
       inkscape:export-ydpi="96"><path
         id="path50-1-6-2"
         style="fill:#f38c83;fill-opacity:1;stroke-width:0.454514;stroke-linecap:round"
         inkscape:transform-center-x="1.0721817e-05"
         d="m 234.32673,40.656562 -6.61448,6.236773 a 1.5177964,1.5177964 90.397551 0 0 -0.0152,2.194065 l 6.41754,6.221562 a 3.9194444,3.9194444 22.06215 0 0 2.7273,1.105344 l 60.45626,0.01333 a 1.1226573,1.1226573 0.09564422 0 1 1.5875,0.0027 l 3.83853,-9.2e-4 a 6626.3288,6626.3288 180 0 1 3.175,0 l 2.25154,5.4e-4 a 1.1223984,1.1223984 179.93071 0 0 1.5875,-0.0019 l 62.04324,-0.01368 a 3.9196117,3.9196117 157.9387 0 0 2.72733,-1.10531 l 6.418,-6.221633 a 1.5177069,1.5177069 89.602463 0 0 -0.0152,-2.193997 l -6.61492,-6.236839 a 3.9965542,3.9965542 21.651065 0 0 -2.74256,-1.088683 l -65.6549,0.01462 a 7127.9216,7127.9216 180 0 1 -3.175,0 l -65.65491,-0.01462 a 3.9963842,3.9963842 158.3481 0 0 -2.74252,1.088717 z"
         inkscape:transform-center-y="8.8314833e-06"
         inkscape:path-effect="#path-effect94-9-8-6"
         inkscape:original-d="m 235.48175,39.567491 -8.92452,8.414915 8.69714,8.43155 63.63126,0.01403 v 0.0023 l 5.42603,-0.0013 5.42654,0.0013 v -0.0023 l 63.63074,-0.01403 8.69766,-8.431553 -8.92504,-8.414913 -68.8299,0.01533 z"
         transform="translate(604.34969,1391.0077)" /><path
         sodipodi:type="star"
         style="opacity:0.242788;fill:#831332;fill-opacity:1;stroke:none;stroke-width:0.7;stroke-linecap:round;stroke-dasharray:none;stroke-opacity:1;filter:url(#filter96-6-8-3)"
         id="path94-0-7-8"
         inkscape:flatsided="true"
         sodipodi:sides="6"
         sodipodi:cx="186.9418"
         sodipodi:cy="-60.847729"
         sodipodi:r1="36.290558"
         sodipodi:r2="31.428541"
         sodipodi:arg1="0.77111342"
         sodipodi:arg2="1.2947122"
         inkscape:rounded="0"
         inkscape:randomized="0"
         d="m 210.93053,-34.978617 -30.84323,8.738484 a 3.6661743,3.6661743 14.181544 0 1 -3.55444,-0.898195 L 153.5435,-49.480102 a 3.6661743,3.6661743 74.181544 0 1 -0.99937,-3.527337 l 7.85387,-31.080259 a 3.6661743,3.6661743 134.18154 0 1 2.55508,-2.629142 l 30.84322,-8.738484 a 3.6661743,3.6661743 14.181544 0 1 3.55445,0.898194 l 22.98936,22.341775 a 3.6661743,3.6661743 74.181544 0 1 0.99936,3.527337 l -7.85386,31.080258 a 3.6661743,3.6661743 134.18154 0 1 -2.55508,2.629143 z"
         transform="matrix(0.5055699,0.14391174,-0.14672268,0.51544489,805.22162,1443.513)"
         inkscape:path-effect="#path-effect96-2-0-8" /><path
         sodipodi:type="star"
         style="fill:#fafbfd;fill-opacity:1;stroke:none;stroke-width:0.7;stroke-linecap:round;stroke-dasharray:none;stroke-opacity:1"
         id="path51-1-0-9"
         inkscape:flatsided="true"
         sodipodi:sides="6"
         sodipodi:cx="186.9418"
         sodipodi:cy="-60.847729"
         sodipodi:r1="36.290558"
         sodipodi:r2="31.428541"
         sodipodi:arg1="0.77111342"
         sodipodi:arg2="1.2947122"
         inkscape:rounded="0"
         inkscape:randomized="0"
         d="m 210.93053,-34.978617 -30.84323,8.738484 a 3.6661743,3.6661743 14.181544 0 1 -3.55444,-0.898195 L 153.5435,-49.480102 a 3.6661743,3.6661743 74.181544 0 1 -0.99937,-3.527337 l 7.85387,-31.080259 a 3.6661743,3.6661743 134.18154 0 1 2.55508,-2.629142 l 30.84322,-8.738484 a 3.6661743,3.6661743 14.181544 0 1 3.55445,0.898194 l 22.98936,22.341775 a 3.6661743,3.6661743 74.181544 0 1 0.99936,3.527337 l -7.85386,31.080258 a 3.6661743,3.6661743 134.18154 0 1 -2.55508,2.629143 z"
         transform="matrix(0.5055699,0.14391174,-0.14672268,0.51544489,805.2217,1443.513)"
         inkscape:path-effect="#path-effect93-7-2-0" /><path
         sodipodi:type="star"
         style="fill:#eb0b30;fill-opacity:1;stroke:none;stroke-width:0.7;stroke-linecap:round;stroke-dasharray:none;stroke-opacity:1"
         id="path92-6-7-4"
         inkscape:flatsided="true"
         sodipodi:sides="6"
         sodipodi:cx="186.9418"
         sodipodi:cy="-60.847729"
         sodipodi:r1="36.290558"
         sodipodi:r2="31.428541"
         sodipodi:arg1="0.77111342"
         sodipodi:arg2="1.2947122"
         inkscape:rounded="0"
         inkscape:randomized="0"
         d="m 210.93053,-34.978617 -30.84323,8.738484 a 3.6661743,3.6661743 14.181544 0 1 -3.55444,-0.898195 L 153.5435,-49.480102 a 3.6661743,3.6661743 74.181544 0 1 -0.99937,-3.527337 l 7.85387,-31.080259 a 3.6661743,3.6661743 134.18154 0 1 2.55508,-2.629142 l 30.84322,-8.738484 a 3.6661743,3.6661743 14.181544 0 1 3.55445,0.898194 l 22.98936,22.341775 a 3.6661743,3.6661743 74.181544 0 1 0.99936,3.527337 l -7.85386,31.080258 a 3.6661743,3.6661743 134.18154 0 1 -2.55508,2.629143 z"
         transform="matrix(0.41982919,0.11950543,-0.12183966,0.42802946,822.7643,1442.7566)"
         inkscape:path-effect="#path-effect92-7-6-0" /></g></g></svg>
